<?xml version="1.0" encoding="UTF-8" standalone="no"?>
<!-- Generator: Adobe Illustrator 16.0.0, SVG Export Plug-In . SVG Version: 6.00 Build 0)  -->

<svg
   xmlns:dc="http://purl.org/dc/elements/1.1/"
   xmlns:cc="http://creativecommons.org/ns#"
   xmlns:rdf="http://www.w3.org/1999/02/22-rdf-syntax-ns#"
   xmlns:svg="http://www.w3.org/2000/svg"
   xmlns="http://www.w3.org/2000/svg"
   xmlns:sodipodi="http://sodipodi.sourceforge.net/DTD/sodipodi-0.dtd"
   xmlns:inkscape="http://www.inkscape.org/namespaces/inkscape"
   version="1.1"
   id="Capa_1"
   x="0px"
   y="0px"
   width="416.979px"
   height="416.979px"
   viewBox="0 0 416.979 416.979"
   style="enable-background:new 0 0 416.979 416.979;"
   xml:space="preserve"
   sodipodi:docname="W.svg"
   inkscape:version="0.92.1 r15371"><metadata
     id="metadata63"><rdf:RDF><cc:Work
         rdf:about=""><dc:format>image/svg+xml</dc:format><dc:type
           rdf:resource="http://purl.org/dc/dcmitype/StillImage" /><dc:title></dc:title></cc:Work></rdf:RDF></metadata><defs
     id="defs61" /><sodipodi:namedview
     pagecolor="#ffffff"
     bordercolor="#666666"
     borderopacity="1"
     objecttolerance="10"
     gridtolerance="10"
     guidetolerance="10"
     inkscape:pageopacity="0"
     inkscape:pageshadow="2"
     inkscape:window-width="1920"
     inkscape:window-height="1017"
     id="namedview59"
     showgrid="false"
     inkscape:zoom="1.6008211"
     inkscape:cx="158.54545"
     inkscape:cy="208.4895"
     inkscape:window-x="-8"
     inkscape:window-y="-8"
     inkscape:window-maximized="1"
     inkscape:current-layer="Capa_1" /><g
     id="g26"
     transform="rotate(90,208.4895,208.489)"
     style="fill:#ffffff"><path
       d="M 416.979,208.489 C 416.979,93.343 323.633,0 208.489,0 93.344,0 0,93.343 0,208.489 c 0,115.146 93.343,208.489 208.489,208.489 115.146,0 208.49,-93.343 208.49,-208.489 z M 219.451,289.738 101.242,221.479 c -4.641,-2.681 -7.499,-7.632 -7.499,-12.99 0,-5.359 2.858,-10.31 7.499,-12.99 L 219.451,127.24 c 4.642,-2.68 10.359,-2.68 15,-10e-4 4.643,2.68 7.502,7.631 7.502,12.991 v 33.259 h 66.281 c 8.285,0 15,6.716 15,15 v 40 c 0,8.284 -6.715,15 -15,15 h -66.281 v 33.259 c 0,5.359 -2.859,10.311 -7.502,12.991 -4.64,2.679 -10.358,2.679 -15,-10e-4 z"
       id="path24"
       inkscape:connector-curvature="0"
       style="fill:#ffffff" /></g><g
     id="g28"
     style="fill:#ffffff" /><g
     id="g30"
     style="fill:#ffffff" /><g
     id="g32"
     style="fill:#ffffff" /><g
     id="g34"
     style="fill:#ffffff" /><g
     id="g36"
     style="fill:#ffffff" /><g
     id="g38"
     style="fill:#ffffff" /><g
     id="g40"
     style="fill:#ffffff" /><g
     id="g42"
     style="fill:#ffffff" /><g
     id="g44"
     style="fill:#ffffff" /><g
     id="g46"
     style="fill:#ffffff" /><g
     id="g48"
     style="fill:#ffffff" /><g
     id="g50"
     style="fill:#ffffff" /><g
     id="g52"
     style="fill:#ffffff" /><g
     id="g54"
     style="fill:#ffffff" /><g
     id="g56"
     style="fill:#ffffff" /><g
     id="g4611"
     transform="rotate(-90,208.5544,208.3644)"><path
       inkscape:connector-curvature="0"
       id="path3735"
       d="M 175.95351,413.65655 C 133.58891,406.71863 92.159318,385.33007 61.419456,354.52687 22.283946,315.31072 1.4134881,264.57945 1.4134881,208.66619 1.4134881,66.828258 139.99861,-33.163485 274.24499,11.813186 382.43588,48.060465 441.80945,167.11388 405.27105,274.54122 c -19.07821,56.09223 -64.22714,104.16832 -118.2236,125.88842 -34.46539,13.8637 -76.5844,18.87842 -111.09394,13.22691 z m 59.24339,-91.31648 c 7.81133,-4.16034 8.16143,-6.00409 8.22025,-43.28915 l 0.0562,-35.62686 20.27449,-0.59378 c 18.25206,-0.53452 20.67149,-0.9912 24.25417,-4.57811 8.30751,-8.31728 6.7542,-12.24308 -30.23195,-76.40778 -18.76518,-32.5544 -36.4294,-61.3763 -39.2538,-64.048679 -5.74369,-5.434522 -12.84334,-6.295487 -18.60947,-2.25674 -2.04329,1.43117 -19.7121,30.347389 -39.26406,64.258259 -39.40056,68.33628 -40.15194,70.3012 -30.11287,78.74852 5.08743,4.28079 6.61752,4.57421 23.85262,4.57421 h 18.41647 v 34.94406 c 0,47.09131 -0.81809,46.03793 35.89507,46.21951 14.03998,0.0694 24.10999,-0.66899 26.5029,-1.94346 z"
       style="fill:#4d4d4d;stroke-width:1.76686013" /></g></svg>