<?xml version="1.0" encoding="iso-8859-1"?>
<!-- Generator: Adobe Illustrator 19.0.0, SVG Export Plug-In . SVG Version: 6.00 Build 0)  -->
<svg version="1.1" id="Capa_1" xmlns="http://www.w3.org/2000/svg" xmlns:xlink="http://www.w3.org/1999/xlink" x="0px" y="0px"
	 viewBox="0 0 512 512" style="enable-background:new 0 0 512 512;" xml:space="preserve">
<path style="fill:#E67878;" d="M468.86,222.525L164.092,326.592c-5.358,1.83-10.927-2.153-10.927-7.815V110.643
	c0-5.662,5.568-9.645,10.927-7.815l304.767,104.067C476.312,209.439,476.312,219.98,468.86,222.525z"/>
<path style="fill:#867E88;" d="M78.843,512H62.327c-4.561,0-8.258-3.697-8.258-8.258V57.806h33.032v445.935
	C87.101,508.303,83.404,512,78.843,512z"/>
<circle style="fill:#AEA8AF;" cx="70.581" cy="33.03" r="33.03"/>
<path style="fill:#9C969E;" d="M87.101,49.548c-18.243,0-33.032-14.789-33.032-33.032c0-4.841,1.099-9.403,2.97-13.546
	c-11.47,5.179-19.486,16.659-19.486,30.063c0,18.243,14.789,33.032,33.032,33.032c13.402,0,24.883-8.016,30.063-19.486
	C96.505,48.45,91.942,49.548,87.101,49.548z"/>
<path style="fill:#E8F7FF;" d="M70.585,16.516c5.473,0,10.324,2.662,13.329,6.762c4.22,5.757,10.396,9.754,17.535,9.754h2.168
	C103.617,14.788,88.829,0,70.585,0S37.553,14.788,37.553,33.032h2.168c7.139,0,13.314-3.997,17.535-9.754
	C60.261,19.178,65.112,16.516,70.585,16.516z"/>
<g>
	<path style="fill:#DC5A64;" d="M164.092,326.591L468.86,222.524c1.036-0.353,1.893-0.886,2.641-1.506l0,0l-318.335,41.367v56.391
		C153.166,324.439,158.734,328.421,164.092,326.591z"/>
	<path style="fill:#DC5A64;" d="M153.166,262.385v56.391c0,5.662,5.569,9.645,10.926,7.815L468.86,222.524
		c1.036-0.353,1.893-0.886,2.641-1.506L153.166,262.385z"/>
</g>
<g>
	<path style="fill:#E8F7FF;" d="M244.004,130.115l-79.912-27.287c-5.358-1.83-10.927,2.153-10.927,7.815v208.134
		c0,5.662,5.568,9.645,10.927,7.815l79.912-27.287V130.115z"/>
	<polygon style="fill:#E8F7FF;" points="301.811,279.566 359.617,259.827 359.617,169.593 301.811,149.854 	"/>
</g>
<g>
	<path style="fill:#D2F0FF;" d="M164.092,326.591l79.912-27.286v-48.724l-90.839,11.804v56.391
		C153.166,324.439,158.734,328.421,164.092,326.591z"/>
	<polygon style="fill:#D2F0FF;" points="301.811,243.069 301.811,279.566 359.617,259.827 359.617,235.556 	"/>
</g>
<g>
	<rect x="54.071" y="107.36" style="fill:#DBD9DC;" width="107.36" height="16.516"/>
	<rect x="54.071" y="305.55" style="fill:#DBD9DC;" width="107.36" height="16.516"/>
</g>
<path style="fill:#E67878;" d="M164.092,326.591l5.59-1.908V104.736l-5.59-1.908c-5.358-1.83-10.926,2.153-10.926,7.816v208.133
	C153.166,324.439,158.734,328.421,164.092,326.591z"/>
<path style="fill:#DC5A64;" d="M164.092,326.591l5.59-1.908v-64.444l-16.516,2.146v56.391
	C153.166,324.439,158.734,328.421,164.092,326.591z"/>
<g>
	<rect x="54.071" y="107.36" style="fill:#C0BCC1;" width="33.03" height="16.516"/>
	<rect x="54.071" y="305.55" style="fill:#C0BCC1;" width="33.03" height="16.516"/>
</g>
<g>
</g>
<g>
</g>
<g>
</g>
<g>
</g>
<g>
</g>
<g>
</g>
<g>
</g>
<g>
</g>
<g>
</g>
<g>
</g>
<g>
</g>
<g>
</g>
<g>
</g>
<g>
</g>
<g>
</g>
</svg>
